<?xml version="1.0" encoding="utf-8"?>
<!-- Generator: Adobe Illustrator 24.0.0, SVG Export Plug-In . SVG Version: 6.00 Build 0)  -->
<svg version="1.1" id="Layer_1" xmlns="http://www.w3.org/2000/svg" xmlns:xlink="http://www.w3.org/1999/xlink" x="0px" y="0px"
	 viewBox="0 0 595.28 841.89" style="enable-background:new 0 0 595.28 841.89;" xml:space="preserve">
<style type="text/css">
	.st0{fill:#336563;}
	.st1{font-family:'AbhayaLibre-Medium';}
	.st2{font-size:58.0598px;}
	.st3{letter-spacing:11;}
	.st4{fill:#62B6A8;}
	.st5{fill:#52B7A8;}
</style>
<text transform="matrix(1 0 0 1 195.5119 437.6242)" class="st0 st1 st2 st3">synvia </text>
<g>
	<g>
		<path class="st4" d="M199.38,457.11c-0.45,0-0.67-0.22-0.67-0.67v-10.38c0-0.45,0.22-0.67,0.67-0.67h3.58
			c1.15,0,2.12,0.23,2.92,0.68s1.4,1.11,1.82,1.98c0.41,0.87,0.62,1.94,0.62,3.2c0,0.95-0.12,1.79-0.35,2.51
			c-0.23,0.73-0.58,1.34-1.04,1.83c-0.46,0.5-1.02,0.87-1.68,1.13c-0.66,0.26-1.43,0.38-2.29,0.38H199.38z M201.31,454.91h1.66
			c0.6,0,1.11-0.14,1.51-0.42s0.7-0.69,0.9-1.24c0.2-0.55,0.3-1.22,0.3-2.01s-0.1-1.46-0.3-2.01s-0.5-0.96-0.9-1.24
			c-0.4-0.28-0.9-0.42-1.51-0.42h-1.66V454.91z"/>
		<path class="st4" d="M227.1,457.24c-1.72,0-3.05-0.52-3.98-1.55c-0.93-1.03-1.4-2.51-1.4-4.45s0.47-3.41,1.4-4.45
			c0.93-1.03,2.26-1.55,3.98-1.55c1.73,0,3.06,0.52,3.98,1.55c0.92,1.03,1.38,2.52,1.38,4.45s-0.46,3.41-1.38,4.45
			C230.15,456.73,228.83,457.24,227.1,457.24z M227.1,455.05c0.89,0,1.57-0.33,2.03-0.98c0.46-0.65,0.69-1.59,0.69-2.82
			c0-1.23-0.23-2.17-0.69-2.81c-0.46-0.65-1.13-0.97-2.03-0.97c-0.89,0-1.57,0.32-2.04,0.97c-0.46,0.65-0.69,1.59-0.69,2.81
			c0,1.23,0.23,2.17,0.69,2.82S226.21,455.05,227.1,455.05z"/>
		<path class="st4" d="M249.41,457.24c-0.85,0-1.56-0.09-2.14-0.26c-0.58-0.17-1.02-0.37-1.32-0.58c-0.31-0.21-0.47-0.42-0.47-0.64
			c0-0.18,0.06-0.38,0.18-0.61c0.12-0.23,0.27-0.43,0.44-0.61s0.31-0.27,0.42-0.27c0.06,0,0.12,0.02,0.19,0.06
			c0.07,0.04,0.16,0.09,0.28,0.14c0.22,0.11,0.5,0.24,0.83,0.37c0.33,0.13,0.72,0.2,1.16,0.2c0.25,0,0.49-0.03,0.73-0.09
			c0.24-0.06,0.44-0.18,0.6-0.35c0.16-0.17,0.24-0.42,0.24-0.73c0-0.33-0.13-0.6-0.39-0.8s-0.58-0.38-0.98-0.54
			c-0.4-0.16-0.8-0.33-1.21-0.54c-0.29-0.13-0.57-0.29-0.84-0.48c-0.27-0.18-0.51-0.41-0.73-0.66s-0.39-0.57-0.51-0.93
			c-0.12-0.36-0.18-0.79-0.18-1.3c0-0.8,0.2-1.45,0.59-1.95c0.39-0.5,0.89-0.86,1.5-1.09c0.61-0.23,1.24-0.34,1.88-0.34
			c0.4,0,0.77,0.03,1.11,0.08s0.63,0.13,0.9,0.23c0.26,0.09,0.48,0.2,0.64,0.33c0.25,0.18,0.37,0.36,0.37,0.54
			c0,0.15-0.05,0.33-0.14,0.57c-0.09,0.23-0.21,0.44-0.36,0.62c-0.15,0.18-0.28,0.27-0.42,0.27c-0.06,0-0.13-0.02-0.23-0.07
			s-0.22-0.09-0.38-0.15c-0.15-0.06-0.32-0.1-0.53-0.14s-0.45-0.06-0.73-0.06c-0.44,0-0.77,0.05-0.99,0.15s-0.37,0.22-0.45,0.37
			c-0.08,0.15-0.12,0.29-0.12,0.42c0,0.3,0.08,0.55,0.25,0.75s0.39,0.36,0.65,0.49c0.27,0.13,0.56,0.27,0.89,0.4
			c0.35,0.14,0.7,0.3,1.06,0.48c0.36,0.17,0.69,0.39,0.99,0.64c0.3,0.26,0.54,0.58,0.73,0.97c0.18,0.39,0.28,0.87,0.28,1.44
			c0,0.68-0.11,1.26-0.33,1.73s-0.51,0.85-0.88,1.13c-0.37,0.29-0.78,0.49-1.22,0.62S249.86,457.24,249.41,457.24z"/>
		<path class="st4" d="M267.33,457.11c-0.45,0-0.67-0.22-0.67-0.67v-10.38c0-0.45,0.22-0.67,0.67-0.67h5.88
			c0.33,0,0.5,0.28,0.5,0.84v0.52c0,0.56-0.17,0.84-0.5,0.84h-3.97v2.43h3.52c0.33,0,0.5,0.28,0.5,0.84v0.52
			c0,0.56-0.17,0.84-0.5,0.84h-3.52v2.71h3.99c0.33,0,0.5,0.28,0.5,0.84v0.52c0,0.56-0.17,0.84-0.5,0.84H267.33z"/>
		<path class="st4" d="M308.44,457.24c-1.72,0-3.05-0.52-3.98-1.55c-0.93-1.03-1.4-2.51-1.4-4.45s0.47-3.41,1.4-4.45
			c0.93-1.03,2.26-1.55,3.98-1.55c1.73,0,3.06,0.52,3.98,1.55c0.92,1.03,1.38,2.52,1.38,4.45s-0.46,3.41-1.38,4.45
			S310.17,457.24,308.44,457.24z M308.44,455.05c0.89,0,1.57-0.33,2.03-0.98s0.69-1.59,0.69-2.82c0-1.23-0.23-2.17-0.69-2.81
			c-0.46-0.65-1.13-0.97-2.03-0.97s-1.57,0.32-2.04,0.97c-0.46,0.65-0.69,1.59-0.69,2.81c0,1.23,0.23,2.17,0.69,2.82
			C306.87,454.72,307.55,455.05,308.44,455.05z"/>
		<path class="st4" d="M328.72,457.14c-0.67,0-1-0.18-1-0.54v-10.55c0-0.45,0.22-0.67,0.67-0.67h5.51c0.33,0,0.5,0.28,0.5,0.84v0.52
			c0,0.56-0.17,0.84-0.5,0.84h-3.6v2.95h3.48c0.33,0,0.5,0.28,0.5,0.84v0.52c0,0.56-0.17,0.84-0.5,0.84h-3.48v3.89
			c0,0.36-0.33,0.54-1,0.54H328.72z"/>
		<path class="st4" d="M364.97,457.14c-0.67,0-1-0.18-1-0.54v-10.72c0-0.36,0.33-0.54,1-0.54h0.59c0.67,0,1,0.18,1,0.54v4.14h4.52
			v-4.14c0-0.36,0.33-0.54,1-0.54h0.59c0.67,0,1,0.18,1,0.54v10.72c0,0.36-0.33,0.54-1,0.54h-0.59c-0.67,0-1-0.18-1-0.54v-4.37
			h-4.52v4.37c0,0.36-0.33,0.54-1,0.54H364.97z"/>
		<path class="st4" d="M392.97,457.24c-1.72,0-3.05-0.52-3.98-1.55c-0.93-1.03-1.4-2.51-1.4-4.45s0.47-3.41,1.4-4.45
			c0.93-1.03,2.26-1.55,3.98-1.55c1.73,0,3.06,0.52,3.98,1.55c0.92,1.03,1.38,2.52,1.38,4.45s-0.46,3.41-1.38,4.45
			S394.7,457.24,392.97,457.24z M392.97,455.05c0.89,0,1.57-0.33,2.03-0.98s0.69-1.59,0.69-2.82c0-1.23-0.23-2.17-0.69-2.81
			c-0.46-0.65-1.13-0.97-2.03-0.97c-0.89,0-1.57,0.32-2.04,0.97c-0.46,0.65-0.7,1.59-0.7,2.81c0,1.23,0.23,2.17,0.7,2.82
			S392.08,455.05,392.97,455.05z"/>
		<path class="st4" d="M413.13,457.14c-0.67,0-1-0.18-1-0.54v-10.55c0-0.45,0.22-0.67,0.67-0.67h3.52c0.37,0,0.78,0.04,1.24,0.13
			s0.9,0.25,1.31,0.49c0.42,0.25,0.76,0.61,1.03,1.11c0.27,0.49,0.4,1.14,0.4,1.94c0,0.65-0.1,1.19-0.3,1.62
			c-0.2,0.44-0.46,0.79-0.78,1.06c-0.32,0.27-0.65,0.48-1,0.62s-0.68,0.23-1,0.29c-0.31,0.05-0.56,0.08-0.74,0.08h-1.78v3.89
			c0,0.36-0.33,0.54-1,0.54H413.13z M414.71,450.51h1.49c0.16,0,0.32-0.02,0.49-0.06c0.17-0.04,0.33-0.11,0.48-0.22
			c0.15-0.11,0.26-0.25,0.35-0.44c0.09-0.19,0.13-0.44,0.13-0.74c0-0.4-0.08-0.71-0.23-0.92c-0.16-0.21-0.35-0.36-0.57-0.44
			c-0.22-0.08-0.44-0.12-0.65-0.12h-1.49V450.51z"/>
		<path class="st4" d="M434.37,457.11c-0.45,0-0.67-0.22-0.67-0.67v-10.38c0-0.45,0.22-0.67,0.67-0.67h5.88
			c0.33,0,0.5,0.28,0.5,0.84v0.52c0,0.56-0.17,0.84-0.5,0.84h-3.97v2.43h3.52c0.33,0,0.5,0.28,0.5,0.84v0.52
			c0,0.56-0.17,0.84-0.5,0.84h-3.52v2.71h3.99c0.33,0,0.5,0.28,0.5,0.84v0.52c0,0.56-0.17,0.84-0.5,0.84H434.37z"/>
	</g>
</g>
<path class="st0" d="M165.88,363.5c1.22-0.2,2.01,0.33,2.56,1.37c0.57,1.07,0.06,1.92-0.54,2.73c-0.9,1.19-2.24,1.86-3.44,2.68
	c-3,2.07-5.95,4.1-8.33,7.01c-2.79,3.4-2.35,9.14,1.24,12.4c3.72,3.37,7.23,6.93,9.67,11.41c2.47,4.52,4.24,9.27,4.78,14.43
	c1.54,14.46-3.25,26.6-13.48,36.75c-6.29,6.25-13.72,10.78-21.69,14.56c-8.47,4.02-17.41,6.59-26.46,8.83
	c-3.42,0.85-6.94,1.26-10.41,1.9c-1.29,0.24-2.38-0.12-2.93-1.25c-0.56-1.15-0.35-2.33,0.75-3.22c2.68-2.15,5.72-3.82,8.32-6.1
	c1.34-1.17,2.61-2.39,3.61-3.88c2.96-4.39,0.73-9.59-2.23-12.12c-7.75-6.63-12.62-14.85-13.93-25.07
	c-1.06-8.23,0.22-16.05,3.65-23.6c3.88-8.52,10.17-14.83,17.7-20.14c5.39-3.8,11.13-6.96,17.19-9.5c6.29-2.64,12.75-4.85,19.42-6.34
	c4.26-0.96,8.56-1.75,12.84-2.61C164.74,363.62,165.32,363.58,165.88,363.5z M123.95,438.44c1.51-0.07,3,0.01,4.52-0.28
	c6.92-1.31,12.2-4.87,15.67-11.05c0.47-0.83,0.71-1.72,0.53-2.71c-0.35-2.02-1.77-3.65-3.61-4.1c-2.1-0.51-3.86,0.23-5.33,2.63
	c-3.12,5.1-9.5,7.3-15.14,5.49c-7.83-2.51-11.73-11.66-7.52-18.88c3.16-5.41,8.17-7.89,14.36-7.81c2.22,0.03,3.79-0.88,5.15-2.46
	c1.19-1.38,2.41-2.74,3.55-4.16c2.22-2.75,4.75-5.27,6.59-8.3c1.36-2.24,0.24-4.9-2.2-5.65c-1.44-0.44-2.65,0.16-3.83,0.87
	c-3.4,2.02-6.75,4.13-10.22,6.04c-4.65,2.56-9.3,5.12-13.79,7.94c-7.87,4.95-11.57,12.02-11.18,21.4
	C101.97,428.62,112.35,438.86,123.95,438.44z M140.78,402.63c-4.48-0.37-8.41,1.09-12.06,3.36c-3.31,2.06-6.12,4.71-7.87,8.3
	c-1.03,2.12-0.13,4.89,1.89,5.96c2.22,1.18,5.1,0.41,6.34-1.65c3.85-6.37,12.04-8.5,18.23-4.68c6.71,4.14,8.74,13.32,3.49,19.49
	c-3.32,3.9-7.46,6.12-12.66,5.95c-2.41-0.08-4.21,0.79-5.71,2.63c-1.67,2.07-3.47,4.03-5.18,6.07c-1.57,1.88-3.18,3.73-4.59,5.73
	c-1.59,2.25-0.94,4.8,1.4,5.96c1.82,0.9,3.36-0.12,4.83-0.96c6.86-3.92,13.64-7.97,20.53-11.83c5.35-3,9.93-6.59,12.33-12.52
	c2.46-6.07,2.66-12.19,0.04-18.09C157.79,407.35,150.58,402.87,140.78,402.63z"/>
<path class="st5" d="M177.78,425.68c0.23,11.16-2.89,21.2-10.03,29.89c-5,6.09-11.24,10.67-17.95,14.66
	c-9.56,5.68-19.82,9.79-30.29,13.42c-2.05,0.71-3.91-0.25-4.49-2.19c-0.5-1.69,0.58-3.49,2.49-4.08c8.52-2.66,16.93-5.64,24.97-9.56
	c9.32-4.54,17.96-10,24.32-18.46c4.06-5.41,6.48-11.49,7.57-18.15c1.02-6.24,0.73-12.46-0.06-18.68c-0.11-0.88-0.13-1.66,0.87-1.84
	c1.06-0.19,1.25,0.66,1.38,1.48C177.29,416.64,177.86,421.13,177.78,425.68z"/>
<path class="st5" d="M86.81,420.75c-0.23-9.01,1.3-17.67,5.18-25.85c3.23-6.81,7.96-12.45,13.7-17.28
	c9.26-7.78,19.92-13.11,31.06-17.58c2.32-0.93,4.66-1.84,7.01-2.69c1.9-0.69,3.73,0.14,4.36,1.89c0.65,1.81-0.3,3.64-2.29,4.29
	c-8.74,2.86-17.38,5.99-25.53,10.31c-6.53,3.46-12.63,7.53-17.78,12.92c-7.02,7.34-10.98,16.14-12.6,26.08
	c-0.84,5.12-1.06,10.27-0.89,15.45c0,0.1,0.01,0.21,0.01,0.31c0.01,0.76,0.01,1.6-1.02,1.59c-0.87,0-0.98-0.72-1.05-1.46
	C86.69,426.08,86.87,423.41,86.81,420.75z"/>
<path class="st4" d="M88.61,431.27c0.76,0.04,1.15,0.47,1.27,1.16c0.39,2.22,1.27,4.26,2.28,6.26c0.34,0.68,0.22,1.21-0.42,1.58
	c-0.65,0.38-1.12,0.01-1.41-0.53c-1.21-2.3-2.21-4.69-2.75-7.24C87.42,431.78,87.85,431.32,88.61,431.27z"/>
<path class="st4" d="M175.7,408.49c-0.1,0.62-0.29,1.1-0.88,1.25c-0.6,0.15-1.12-0.2-1.25-0.69c-0.64-2.47-1.54-4.83-2.61-7.14
	c-0.21-0.46-0.04-0.94,0.43-1.21c0.47-0.27,1-0.2,1.25,0.24C174.02,403.34,175,405.89,175.7,408.49z"/>
<path class="st4" d="M167.11,393.08c0.48-0.03,0.82,0.25,1.04,0.6c1.01,1.58,2.26,3,3.03,4.73c0.29,0.65,0.39,1.24-0.32,1.62
	c-0.59,0.32-1.1,0.08-1.47-0.48c-1.04-1.56-2.11-3.1-3.11-4.68C165.71,393.96,166.14,393.12,167.11,393.08z"/>
<path class="st4" d="M97.17,446.37c-0.04,0.9-0.25,1.25-0.68,1.4c-0.46,0.15-0.97,0.16-1.28-0.29c-1.08-1.59-2.33-3.08-3.14-4.84
	c-0.26-0.56-0.5-1.26,0.24-1.66c0.76-0.41,1.26,0.05,1.67,0.68c0.89,1.35,1.8,2.68,2.7,4.01C96.92,446.01,97.18,446.35,97.17,446.37
	z"/>
<path class="st4" d="M166.4,391.78c-0.06,0.65-0.43,1.21-1.19,0.9c-1.17-0.47-2.17-1.27-2.59-2.5c-0.25-0.73,0.28-1.17,1-1.23
	C164.23,388.91,166.35,391.06,166.4,391.78z"/>
<path class="st4" d="M99.6,452.04c-0.59,0.01-2.88-2.29-2.86-2.87c0.02-0.8,0.91-1.3,1.6-0.78c0.78,0.59,1.51,1.3,2.09,2.08
	C100.93,451.14,100.39,452.03,99.6,452.04z"/>
<path class="st4" d="M105.14,455.23c-0.14,0.61-0.49,1.03-1.17,0.96c-0.61-0.06-0.92-0.55-0.89-1.1c0.03-0.67,0.49-0.99,1.17-0.96
	C104.92,454.16,105.07,454.65,105.14,455.23z"/>
<path class="st4" d="M159.05,384.82c0.58,0.02,0.99,0.26,1.01,0.91c0.02,0.67-0.34,1.12-0.99,1.16c-0.69,0.05-1-0.43-0.99-1.1
	C158.09,385.16,158.44,384.86,159.05,384.82z"/>
<path class="st4" d="M161.06,386.85c0.75,0.01,1.09,0.44,1.07,1c-0.03,0.64-0.45,1.05-1.15,1c-0.65-0.05-0.92-0.5-0.86-1.08
	C160.17,387.2,160.5,386.8,161.06,386.85z"/>
<path class="st4" d="M101.02,453.22c0.1-0.69,0.37-1.16,1.07-1.15c0.56,0.01,0.99,0.28,1,0.93c0.01,0.69-0.36,1.05-1.03,1.07
	C101.45,454.1,101.13,453.74,101.02,453.22z"/>
</svg>
